<?xml version="1.0" encoding="UTF-8" standalone="no"?>
<!-- Created with Inkscape (http://www.inkscape.org/) -->

<svg
   width="1600mm"
   height="900mm"
   viewBox="0 0 1600 900"
   version="1.1"
   id="svg1"
   inkscape:version="1.1.2 (b8e25be833, 2022-02-05)"
   sodipodi:docname="vvh-hlavicka.svg"
   xmlns:inkscape="http://www.inkscape.org/namespaces/inkscape"
   xmlns:sodipodi="http://sodipodi.sourceforge.net/DTD/sodipodi-0.dtd"
   xmlns="http://www.w3.org/2000/svg"
   xmlns:svg="http://www.w3.org/2000/svg">
  <sodipodi:namedview
     id="namedview1"
     pagecolor="#ffffff"
     bordercolor="#666666"
     borderopacity="1.0"
     inkscape:showpageshadow="2"
     inkscape:pageopacity="0.0"
     inkscape:pagecheckerboard="0"
     inkscape:deskcolor="#d1d1d1"
     inkscape:document-units="mm"
     inkscape:zoom="0.12929276"
     inkscape:cx="3716.3721"
     inkscape:cy="3697.0361"
     inkscape:window-width="2560"
     inkscape:window-height="1377"
     inkscape:window-x="-8"
     inkscape:window-y="-8"
     inkscape:window-maximized="1"
     inkscape:current-layer="layer1"
     inkscape:pageshadow="2"
     showgrid="false" />
  <defs
     id="defs1">
    <inkscape:path-effect
       effect="powerclip"
       id="path-effect19"
       is_visible="true"
       lpeversion="1"
       inverse="true"
       flatten="false"
       hide_clip="false"
       message="Use fill-rule evenodd on &lt;b&gt;fill and stroke&lt;/b&gt; dialogue if no flatten result after convert clip to paths." />
    <rect
       x="-2003.2058"
       y="-711.56342"
       width="1388.3221"
       height="235.89874"
       id="rect1143" />
    <rect
       x="-1972.2682"
       y="-406.05521"
       width="1705.4319"
       height="247.50034"
       id="rect1144" />
    <rect
       x="-2598.7534"
       y="-320.97699"
       width="533.67261"
       height="132.59727"
       id="rect1145" />
    <rect
       x="-2598.7534"
       y="-320.97699"
       width="533.67261"
       height="132.59727"
       id="rect1146" />
    <rect
       x="-2598.7534"
       y="-320.97699"
       width="533.67261"
       height="132.59727"
       id="rect1147" />
    <rect
       x="-2598.7534"
       y="-320.97699"
       width="533.67261"
       height="132.59727"
       id="rect1148" />
    <filter
       id="mask-powermask-path-effect18_inverse"
       inkscape:label="filtermask-powermask-path-effect18"
       style="color-interpolation-filters:sRGB"
       height="100"
       width="100"
       x="-50"
       y="-50">
      <feColorMatrix
         id="mask-powermask-path-effect18_primitive1"
         values="1"
         type="saturate"
         result="fbSourceGraphic" />
      <feColorMatrix
         id="mask-powermask-path-effect18_primitive2"
         values="-1 0 0 0 1 0 -1 0 0 1 0 0 -1 0 1 0 0 0 1 0 "
         in="fbSourceGraphic" />
    </filter>
    <clipPath
       clipPathUnits="userSpaceOnUse"
       id="clipPath19">
      <path
         id="path19"
         style="display:block;fill:#ffffff;fill-opacity:1;stroke:none;stroke-width:5.32892;stroke-miterlimit:4.3;paint-order:markers fill stroke"
         d="M -630.43784,-359.09581 V 1306.6014 H 2484.8154 V -359.09581 Z M 1.32608,0 H 1600 V 899.2535 H 1.32608 Z" />
    </clipPath>
  </defs>
  <g
     inkscape:label="Layer 1"
     inkscape:groupmode="layer"
     id="layer1">
    <path
       style="fill:#bcd8c1;fill-opacity:1;stroke-width:6.93875;stroke-miterlimit:4.3;paint-order:markers fill stroke"
       id="rect13"
       width="1600"
       height="900"
       x="-4.1685161e-14"
       y="5.978551e-14"
       inkscape:export-filename=".\v2-bez-predelu-syta.png"
       inkscape:export-xdpi="200"
       inkscape:export-ydpi="200"
       sodipodi:type="rect"
       d="M 0,0 H 1600 V 900 H 0 Z" />
    <path
       style="fill:#4e8a92;fill-opacity:1;stroke:none;stroke-width:0.165281px;stroke-linecap:butt;stroke-linejoin:miter;stroke-opacity:1"
       d="M 283.88987,240.40498 196.45459,224.6409 c 31.2955,90.05527 -107.486392,69.18796 -54.61213,-10.49577 L 71.941964,201.47744 86.624874,125.13328 C -1.4926935,159.43065 11.829574,15.912872 96.204285,69.454843 L 109.63669,-5.0478076 188.04004,8.3991054 C 137.1677,82.80908 261.40983,115.82907 246.20567,18.197001 l 72.7235,13.111635 -13.81649,75.352034 c -96.06284,-50.409888 -85.44511,90.08484 -10.02053,58.12525 z"
       id="path5"
       sodipodi:nodetypes="ccccccccccccc" />
    <path
       style="fill:#4eacab;fill-opacity:1;stroke:none;stroke-width:0.103452px;stroke-linecap:butt;stroke-linejoin:miter;stroke-opacity:1"
       d="m 576.25535,281.11733 -60.5898,6.65448 c 38.28653,51.70092 -57.06785,64.92477 -37.97209,3.7403 l -48.45172,5.27752 -5.3588,-51.72653 c 59.83962,22.19442 62.28368,-66.33391 -4.65059,-37.50891 l -5.81891,-50.30689 54.19553,-6.40852 c -18.81655,57.42225 69.36763,54.77082 40.17139,-4.86817 l 50.39503,-5.53458 5.73345,50.9249 c -50.44334,-18.87942 -48.91323,73.00233 4.84172,39.16086 z"
       id="path6"
       sodipodi:nodetypes="ccccccccccccc" />
    <path
       style="fill:#4e8a92;fill-opacity:1;stroke:none;stroke-width:0.161756px;stroke-linecap:butt;stroke-linejoin:miter;stroke-opacity:1"
       d="m 656.95194,888.90801 -86.37349,-9.99757 c 41.09812,78.42179 -106.39603,80.91899 -53.989,-6.87936 l -69.05562,-8.05758 9.62684,-75.47366 c -83.94854,38.9397 -79.79865,-102.05933 5.91837,-54.97466 l 8.51912,-73.59735 77.4088,8.29232 c -48.75553,72.12364 90.53039,93.63513 57.41674,5.97825 l 71.84038,8.31576 -8.84182,74.45104 c 91.2227,-22.342 67.86293,106.04643 -6.19811,57.39132 z"
       id="path7"
       sodipodi:nodetypes="ccccccccccccc" />
    <path
       style="fill:#eab229;fill-opacity:1;stroke:none;stroke-width:0.13568px;stroke-linecap:butt;stroke-linejoin:miter;stroke-opacity:1"
       d="M -73.756533,676.61132 -1.9786911,663.68018 C -51.86155,603.37341 60.877485,579.65255 43.039909,656.103 l 57.401951,-10.2872 10.58421,62.93579 c 57.95587,-51.63636 88.83785,62.58328 8.58775,45.57686 l 11.01846,61.16073 -64.165912,12.12541 c 17.80896,-71.81963 -87.228117,-61.61422 -47.552178,9.13242 l -59.700607,10.75534 -10.966503,-61.92463 c 88.343699,11.24801 39.912064,-93.78566 -8.949562,-47.58505 z"
       id="path9"
       sodipodi:nodetypes="ccccccccccccc" />
    <path
       style="fill:#f2e28a;fill-opacity:1;stroke:none;stroke-width:0.104592px;stroke-linecap:butt;stroke-linejoin:miter;stroke-opacity:1"
       d="m 222.93175,661.12949 -8.74959,-55.53743 c -47.32289,37.42211 -63.69393,-49.8664 -5.07683,-34.82368 l -6.95526,-44.41341 48.68326,-7.09065 c -18.55371,56.04782 65.23764,54.61244 35.27096,-5.84614 l 47.32271,-7.45541 8.2576,49.65737 c 52.90998,-52.16197 74.2811,58.46634 6.23242,36.80271 l 7.27735,46.19254 -47.91038,7.40233 c 17.15439,-57.29443 -69.57716,-46.49711 -36.82494,6.09098 z"
       id="path10"
       sodipodi:nodetypes="ccccccccccccc" />
    <path
       style="fill:#4eacab;fill-opacity:1;stroke:none;stroke-width:0.170687px;stroke-linecap:butt;stroke-linejoin:miter;stroke-opacity:1"
       d="m 1790.6473,599.24013 -70.22,-59.05421 c 89.952,-25.24439 -14.9376,-140.25858 -44.3753,-36.45696 l -56.1902,-47.16753 -50.957,62.04213 c -30.9028,-92.63089 -136.1191,12.65723 -37.9089,44.35147 l -50.3194,59.83356 62.4192,53.40877 c 20.0514,-89.64857 137.4243,1.6802 46.166,39.74009 l 58.4049,49.11792 50.7408,-60.69924 c 48.9095,86.19516 130.5359,-24.70511 39.5613,-46.31651 z"
       id="path11"
       sodipodi:nodetypes="ccccccccccccc" />
    <path
       style="fill:#eab229;fill-opacity:1;stroke:none;stroke-width:0.111205px;stroke-linecap:butt;stroke-linejoin:miter;stroke-opacity:1"
       d="m 1099.7467,805.74637 19.7769,-56.41027 c -63.1586,11.20857 -34.5279,-78.77119 12.784,-35.16496 l 15.8545,-45.09059 49.1569,17.87823 c -13.4087,-62.19081 80.5201,-38.06842 35.9712,12.28901 l 48.0666,16.85162 -17.2762,50.65664 c -44.0212,-41.71526 -79.1787,37.31198 -12.6986,37.60001 l -16.4493,46.91894 -48.5901,-17.1972 c 43.712,-58.45551 -50.7561,-66.35162 -37.5496,-12.84214 z"
       id="path12"
       sodipodi:nodetypes="ccccccccccccc" />
    <path
       style="fill:#f2e28a;fill-opacity:1;stroke:none;stroke-width:0.126995px;stroke-linecap:butt;stroke-linejoin:miter;stroke-opacity:1"
       d="m 1207.5152,250.00422 -58.1571,35.74715 c 64.0453,35.55797 -26.1375,94.67746 -36.6576,21.95565 l -46.5278,28.54032 -30.6863,-51.25028 c 71.4823,-5.38513 30.7356,-98.62432 -23.0268,-36.79961 l -30.45948,-49.55489 51.79678,-32.44908 c -83.17428,-34.9353 30.831,-110.56033 38.3359,-24.17514 l 48.3716,-29.73224 30.6749,50.23843 c -72.226,7.53561 -19.6134,99.69729 24.0267,38.42652 z"
       id="path11493"
       sodipodi:nodetypes="ccccccccccccc" />
    <path
       style="fill:#4e8a92;fill-opacity:1;stroke:none;stroke-width:0.103452px;stroke-linecap:butt;stroke-linejoin:miter;stroke-opacity:1"
       d="m 1340.8131,308.28637 87.3139,12.07975 c -57.4437,73.1803 79.8565,96.16802 54.7378,6.94873 l 69.824,9.5964 9.8469,-74.55449 c 72.2173,37.83815 86.604,-77.9529 8.2458,-54.0313 l 10.4544,-72.48367 -78.0809,-11.46455 c 24.8678,83.76955 -102.4972,76.35574 -57.8712,-8.66842 l -72.6227,-10.04692 -10.3558,73.38053 c 73.6838,-25.24225 67.7407,107.51319 -8.5891,56.41147 z"
       id="path12121"
       sodipodi:nodetypes="ccccccccccccc" />
  </g>
</svg>
